HIERARCHY
ROOT pelvis
{
  OFFSET 0 100 0
  CHANNELS 6 Xposition Yposition Zposition Zrotation Xrotation Yrotation
  JOINT pelvis_right_femur
  {
    OFFSET -10.78128 -3.44521 -0.5502486
    CHANNELS 3 Zrotation Xrotation Yrotation
    JOINT right_femur_tibia
    {
      OFFSET -0.8047443 -44.0398 -0.1307829
      CHANNELS 3 Zrotation Xrotation Yrotation
      JOINT right_tibia_foot
      {
        OFFSET 3.006224 -47.83518 -5
        CHANNELS 3 Zrotation Xrotation Yrotation
        End Site
        {
          OFFSET 0 -5 15
        }
      }
    }
  }
  JOINT pelvis_left_femur
  {
    OFFSET 10.78128 -3.44521 -0.5502486
    CHANNELS 3 Zrotation Xrotation Yrotation
    JOINT left_femur_tibia
    {
      OFFSET 0.8047443 -44.0398 -0.1307829
      CHANNELS 3 Zrotation Xrotation Yrotation
      JOINT left_tibia_foot
      {
        OFFSET -4.370144 -48.10324 -4.275266
        CHANNELS 3 Zrotation Xrotation Yrotation
        End Site
        {
          OFFSET 0 -5 15
        }
      }
    }
  }
  JOINT pelvis_spine1
  {
    OFFSET 0 6.468898 -3.129235
    CHANNELS 3 Zrotation Xrotation Yrotation
    JOINT spine1
    {
      OFFSET 0 23.15396 4.99043
      CHANNELS 3 Zrotation Xrotation Yrotation
      JOINT spine2
      {
        OFFSET 0 20.79997 -5.064912
        CHANNELS 3 Zrotation Xrotation Yrotation
        JOINT neck
        {
          OFFSET 0 14.38658 9.616178
          CHANNELS 3 Zrotation Xrotation Yrotation
          End Site
          {
            OFFSET 0 20 0
          }
        }
      }
      JOINT right_manubrium
      {
        OFFSET -5.722621 16.35077 3.967754
        CHANNELS 3 Zrotation Xrotation Yrotation
        JOINT right_clavicle
        {
          OFFSET -13.16364 1.694482 -4.693211
          CHANNELS 3 Zrotation Xrotation Yrotation
          JOINT right_humerus
          {
            OFFSET -28.5034 -0.3100689 -2.792744
            CHANNELS 3 Zrotation Xrotation Yrotation
            JOINT right_radius
            {
              OFFSET -25.15693 0.02248979 -1.271978
              CHANNELS 3 Zrotation Xrotation Yrotation
              End Site
              {
                OFFSET -15 0 0
              }
            }
          }
        }
      }
      JOINT left_manubrium
      {
        OFFSET 5.722621 16.35077 3.967754
        CHANNELS 3 Zrotation Xrotation Yrotation
        JOINT left_clavicle
        {
          OFFSET 13.16364 1.694482 -4.693211
          CHANNELS 3 Zrotation Xrotation Yrotation
          JOINT left_humerus
          {
            OFFSET 29.39168 -1.063119 -2.237045
            CHANNELS 3 Zrotation Xrotation Yrotation
            JOINT left_radius
            {
              OFFSET 24.59957 -0.9528479 0.9047498
              CHANNELS 3 Zrotation Xrotation Yrotation
              End Site
              {
                OFFSET 15 -0 -0
              }
            }
          }
        }
      }
    }
  }
}
MOTION
Frames: 9
Frame Time: 0.0416666666667
0 103.5113 0 1.686787 0.2881385 -0.1409503 3.554591 -16.09293 11.77832 -0 38.11294 -0 -4.882954 -19.82487 -4.299627 -8.527037 7.759034 -22.93677 -0 5.170201 -0 17.95612 -11.91744 31.01722 -4.810756 -3.866851 5.799421 3.207506 10.01581 -7.679187 1.611011 21.9525 6.174233 1.751256 -25.68971 10.27367 5.96658 -20.75547 11.91841 86.72282 38.85391 -17.56435 -0 0 15.73517 -5.037781 7.55726 5.103456 4.589288 -18.42604 -0.8921694 -91.56219 21.31679 19.99266 0 0 -15.14127 14.78462 12.53133 -2.372769
0.3609602 104.0713 1.437703 1.405867 0.9329628 -0.2278273 4.361522 -18.45917 11.98239 -0 37.26051 -0 -4.817224 -18.31935 -3.921864 -8.404651 8.24602 -23.00579 -0 5.022428 -0 18.12071 -12.52394 31.18897 -4.613755 -3.585125 5.796673 3.202675 9.939566 -7.598008 1.726796 21.64507 6.31452 1.961509 -26.19136 10.51628 6.096734 -20.67481 11.88418 86.65734 39.51052 -17.62806 -0 0 15.49853 -4.538493 7.641613 4.809379 4.925149 -18.54137 -0.6871318 -91.38838 21.13675 19.89913 0 0 -16.20383 15.48946 12.17777 -2.908121
0.7151597 104.0699 3.783811 0.7803223 -0.02045083 -0.2712422 3.749662 -23.06273 6.111369 -0 29.14836 -0 -5.858736 -11.23808 -1.392467 -7.039603 10.19162 -19.38275 -0 5.357684 -0 12.70307 -16.28674 25.84786 -3.508177 -2.993727 4.830449 2.473406 10.52583 -7.539897 1.310946 21.73 6.852445 3.227424 -24.55716 9.330829 5.496928 -19.65807 11.84261 86.85569 35.06216 -19.04104 -0 0 14.0133 -10.01932 9.001765 5.545625 6.938471 -21.52386 -2.52076 -90.09325 19.39207 17.57086 0 0 -18.25153 16.74405 14.71856 -5.23354
1.048433 103.9746 6.513613 0.543481 0.1597378 -0.2865123 3.923893 -25.47658 4.771629 -0 26.25672 -0 -6.116369 -8.786568 -0.7031111 -6.752483 10.985 -18.40499 -0 5.564577 -0 11.68633 -17.43401 24.62485 -3.224293 -2.722057 4.600649 2.363816 10.60008 -7.514289 1.308611 21.60447 6.956445 3.534305 -24.42965 9.160836 5.315269 -19.31717 11.77412 86.96411 34.27058 -19.47587 -0 0 13.36394 -10.95986 9.288503 5.614294 7.540762 -22.28826 -2.787735 -89.55214 18.80514 16.68455 0 0 -19.44334 17.45889 14.85483 -6.149654
1.377135 103.8746 9.497864 0.3777786 1.034407 -0.2130075 4.63095 -27.95643 4.889308 -0 24.35202 -0 -5.918373 -7.440989 -0.3502495 -6.773515 11.65747 -18.3445 -0 5.57957 -0 12.0394 -18.13711 24.72607 -3.185592 -2.532732 4.604603 2.475148 10.48521 -7.500249 1.406498 21.26198 7.072316 3.693465 -24.86654 9.392019 5.496476 -19.09472 11.69604 86.84311 35.19365 -19.70879 -0 0 13.02788 -10.34207 9.454113 5.261647 7.870577 -22.38367 -2.500514 -89.23419 18.5229 16.31685 0 0 -20.70257 18.16735 14.14057 -6.864613
1.689206 103.7117 12.87955 0.1769483 1.931156 -0.001782594 5.341715 -30.7815 4.623112 -0 21.61967 -0 -5.851954 -5.658236 0.04873069 -6.742691 12.73886 -17.97453 -0 5.741173 -0 12.09554 -18.89545 24.38224 -3.09156 -2.285062 4.429325 2.605302 10.34968 -7.519429 1.442959 20.95079 7.241805 3.840937 -25.16523 9.578979 5.520211 -18.71413 11.58783 86.9871 36.0628 -20.19733 -0 0 12.25975 -9.964218 9.568573 5.081061 8.164932 -22.60502 -2.332747 -88.47179 18.17451 15.43765 0 0 -22.735 18.6744 13.15723 -7.441928
1.976811 103.4944 16.80605 -0.1108615 2.834495 0.3880954 6.072043 -33.64779 4.124277 -0 18.35545 -0 -5.869215 -3.693787 0.4271436 -6.630013 14.27446 -17.35445 -0 6.415598 -0 11.47363 -19.64601 23.41701 -2.879469 -2.009045 4.047236 2.760295 10.16763 -7.582624 1.41232 20.66951 7.460939 3.937406 -25.30072 9.749719 5.415716 -18.14695 11.41629 87.35647 36.84482 -20.95384 -0 0 11.20989 -9.702873 9.605399 5.012014 8.343938 -22.817 -2.266297 -87.45201 18.02582 14.30978 0 0 -25.2146 18.5899 11.98442 -7.505029
2.247315 103.3225 21.35792 -0.5815423 3.7548 0.9722639 6.987515 -35.79756 3.970675 -0 15.61254 -0 -5.957861 -2.206728 0.6008383 -6.40304 15.93555 -16.64048 -0 8.225026 -0 10.0237 -19.87007 21.85383 -2.429876 -1.780452 3.514419 2.958804 9.953551 -7.729569 1.29247 20.38838 7.722896 3.883876 -25.38009 9.982324 5.229661 -17.51386 11.18543 87.977 37.69766 -21.90455 -0 0 10.20241 -9.234507 9.467266 4.99645 8.183993 -22.76457 -2.230777 -86.52437 18.30859 13.56571 0 0 -27.44302 17.58011 10.60109 -6.613282
2.540741 103.3923 26.46419 -1.354463 4.683013 1.702699 8.20468 -36.27195 4.681008 -0 14.71052 -0 -6.188013 -1.839527 0.5168194 -5.973533 16.8068 -15.92478 -0 11.86852 -0 7.617048 -18.98608 19.70281 -1.583652 -1.693485 3.027004 3.173849 9.791078 -7.996701 1.047969 20.05096 8.015907 3.678727 -25.60068 10.27235 5.124832 -17.07031 10.9635 88.67359 38.64288 -22.80388 -0 0 9.846664 -8.425741 9.201517 4.965806 7.561215 -22.29322 -2.16444 -86.43541 19.14297 14.29968 0 0 -28.01437 15.65416 9.322603 -4.581592
